<svg xmlns="http://www.w3.org/2000/svg" xmlns:xlink="http://www.w3.org/1999/xlink" fill="none" version="1.1" width="48" height="20" viewBox="0 0 48 20"><defs><linearGradient x1="1" y1="1" x2="-0.13927250596882168" y2="0.8022096343804128" id="master_svg0_39_12182"><stop offset="0%" stop-color="#FF911C" stop-opacity="1"/><stop offset="100%" stop-color="#FFB86E" stop-opacity="1"/></linearGradient></defs><g><g><rect x="0" y="0" width="48" height="20" rx="10" fill="url(#master_svg0_39_12182)" fill-opacity="1"/><rect x="0.5" y="0.5" width="47" height="19" rx="9.5" fill-opacity="0" fill="none" stroke-width="1"/></g><g></g><g><path d="M14.55000001,6.360000100000001L23.4399996,6.360000100000001L23.4399996,7.0700002L19.0999999,7.0700002L19.0999999,8.5799999Q20.96,9.5100002,22.8800001,10.7399998L22.4499998,11.3800001Q20.48,10.070000199999999,19.0999999,9.3400002L19.0999999,15.02L18.3699999,15.02L18.3699999,7.0700002L14.55000001,7.0700002L14.55000001,6.360000100000001ZM27.98,13.7Q26.490000000000002,14.28,24.619999999999997,14.62L24.53,13.92Q26.46,13.6,27.98,13.01L27.98,13.7ZM26.889999,6.0500001999999995Q26.130000000000003,7.98,25.34,9.1700001Q25.92,9.1199999,26.690001000000002,9L27.27,7.8600001L27.91,8.0999999Q26.61,10.600000399999999,25.71,11.6999998Q26.79,11.4899998,27.869999999999997,11.1300001L27.869999999999997,11.7799997Q26.259999999999998,12.3000002,24.86,12.4899998L24.66,11.8299999Q24.86,11.7399998,24.990000000000002,11.6199999Q25.55,11.04,26.33,9.6500001Q25.78,9.73,24.66,9.8699999L24.490000000000002,9.21Q24.65,9.1500001,24.79,8.9500003Q25.6,7.5799999,26.2,5.779999699999999L26.889999,6.0500001999999995ZM32.83,7.6000004L32.93,8.2600002L30.360001,8.6199999Q30.389999,9.3299999,30.450001,9.98L33.099998,9.559999900000001L33.209998999999996,10.2399998L30.529999,10.6599998Q30.559999,10.8900003,30.610001,11.1800003Q30.76,11.9400005,30.969999,12.5500002Q31.799999,11.7799997,32.41,10.850000399999999L32.980000000000004,11.2399998Q32.17,12.4200001,31.26,13.21L31.369999,13.4Q31.869999,14.14,32.25,14.14Q32.65,14.14,32.92,12.5299997L33.529999000000004,12.9300003Q33.110001,14.92,32.33,14.92Q31.610001,14.89,30.969999,14Q30.82,13.79,30.74,13.63Q29.619999999999997,14.46,28.35,14.85L27.93,14.27Q29.32,13.82,30.42,13Q30.139999,12.3500004,29.96,11.54Q29.9,11.2600002,29.82,10.77L28.02,11.0600004L27.92,10.3800001L29.73,10.0900002Q29.66,9.4500003,29.639999,8.720000299999999L28.2,8.9300003L28.09,8.27L29.619999999999997,8.0500002L29.619999999999997,5.8299999L30.34,5.8299999L30.34,7.9500003L32.83,7.6000004ZM31.459999,5.8000001999999995Q32.220000999999996,6.52,32.639999,7.04L32.08,7.4300003Q31.67,6.860000100000001,30.9,6.1500001L31.459999,5.8000001999999995Z" fill="#FFFFFF" fill-opacity="1"/></g></g></svg>