<svg xmlns="http://www.w3.org/2000/svg" xmlns:xlink="http://www.w3.org/1999/xlink" fill="none" version="1.1" width="48" height="20" viewBox="0 0 48 20"><defs><linearGradient x1="1" y1="0.035790104418992996" x2="-0.12974862702268763" y2="0.22490725818537005" id="master_svg0_39_06044"><stop offset="0%" stop-color="#53DDAC" stop-opacity="1"/><stop offset="100%" stop-color="#54B5A6" stop-opacity="1"/></linearGradient><linearGradient x1="0.0181554164737463" y1="0.31787872314453125" x2="0.9638029932975769" y2="0.6949737668037415" id="master_svg1_39_10622"><stop offset="0%" stop-color="#ADE7DC" stop-opacity="1"/><stop offset="100%" stop-color="#F2FFF5" stop-opacity="1"/></linearGradient></defs><g><g><rect x="0" y="0" width="48" height="20" rx="10" fill="url(#master_svg0_39_06044)" fill-opacity="1"/><rect x="0.5" y="0.5" width="47" height="19" rx="9.5" stroke="url(#master_svg1_39_10622)" fill-opacity="0" fill="none" stroke-width="1"/></g><g><g><path d="M17.59,10.49L19.88,10.49L19.88,8.629999999999999L20.61,8.629999999999999L20.61,10.49L23,10.49L23,11.19L20.61,11.19L20.61,13.95L23.45,13.95L23.45,14.66L17.18,14.66L17.18,13.95L19.88,13.95L19.88,11.19L17.59,11.19L17.59,10.49ZM15.98,10.93Q15.379999999999999,11.55,14.8,12.03L14.35,11.44Q16.22,9.9,17.27,7.9L14.7,7.9L14.7,7.19L17.61,7.19Q17.94,6.4399999999999995,18.13,5.76L18.88,5.85Q18.64,6.65,18.41,7.19L23.439999999999998,7.19L23.439999999999998,7.9L18.09,7.9Q17.509999999999998,9.08,16.69,10.11L16.69,15.03L15.98,15.03L15.98,10.93ZM27.98,13.7Q26.490000000000002,14.28,24.619999999999997,14.62L24.53,13.92Q26.46,13.6,27.98,13.01L27.98,13.7ZM26.89,6.05Q26.130000000000003,7.98,25.34,9.17Q25.92,9.120000000000001,26.689999999999998,9L27.27,7.86L27.91,8.1Q26.61,10.6,25.71,11.7Q26.79,11.49,27.869999999999997,11.13L27.869999999999997,11.78Q26.259999999999998,12.3,24.86,12.49L24.66,11.83Q24.86,11.74,24.990000000000002,11.62Q25.55,11.04,26.33,9.65Q25.78,9.73,24.66,9.870000000000001L24.490000000000002,9.21Q24.65,9.15,24.79,8.95Q25.6,7.58,26.2,5.779999999999999L26.89,6.05ZM32.83,7.6L32.93,8.26L30.36,8.620000000000001Q30.39,9.33,30.45,9.98L33.1,9.559999999999999L33.21,10.24L30.53,10.66Q30.56,10.89,30.61,11.18Q30.76,11.94,30.97,12.55Q31.8,11.78,32.41,10.85L32.980000000000004,11.24Q32.17,12.42,31.26,13.21L31.37,13.4Q31.87,14.14,32.25,14.14Q32.65,14.14,32.92,12.53L33.53,12.93Q33.11,14.92,32.33,14.92Q31.61,14.89,30.97,14Q30.82,13.79,30.74,13.63Q29.619999999999997,14.46,28.35,14.85L27.93,14.27Q29.32,13.82,30.42,13Q30.14,12.35,29.96,11.54Q29.9,11.26,29.82,10.77L28.02,11.06L27.92,10.379999999999999L29.73,10.09Q29.66,9.45,29.64,8.719999999999999L28.2,8.93L28.09,8.27L29.619999999999997,8.05L29.619999999999997,5.83L30.34,5.83L30.34,7.95L32.83,7.6ZM31.46,5.8Q32.22,6.52,32.64,7.04L32.08,7.43Q31.67,6.859999999999999,30.9,6.15L31.46,5.8Z" fill="#FFFFFF" fill-opacity="1"/></g></g></g></svg>